<svg xmlns="http://www.w3.org/2000/svg" width="74.25" height="17.22" viewBox="0 0 74.25 17.22"><defs><style>.cls-1{fill:#231f20;}</style></defs><g id="Layer_2" data-name="Layer 2"><g id="Design"><path class="cls-1" d="M6.48,17.22a6.54,6.54,0,0,1,0-13.08,6.37,6.37,0,0,1,3.84,1.15v-1h3V17h-3v-.8a7.37,7.37,0,0,1-3.84,1.06M3,10.68A3.66,3.66,0,0,0,6.56,14.3a3.73,3.73,0,0,0,3.76-3.62A3.74,3.74,0,0,0,6.56,7.06,3.67,3.67,0,0,0,3,10.68m18,6.54A6.54,6.54,0,1,1,21,4.14,6.3,6.3,0,0,1,24.8,5.29V0h3.1V17H24.8v-.8A7.55,7.55,0,0,1,21,17.22m-3.59-6.54a3.69,3.69,0,0,0,7.38,0,3.69,3.69,0,0,0-7.38,0M32.6,17H29.47V4.33H32.6ZM29.47,0H32.6V3.18H29.47ZM44.2,0h3V17h-3v-.8a7.55,7.55,0,0,1-3.8,1.06,6.47,6.47,0,0,1-6.48-6.54A6.57,6.57,0,0,1,44.2,5.29ZM36.85,10.68a3.68,3.68,0,0,0,7.35,0,3.68,3.68,0,0,0-7.35,0m18,6.54a6.62,6.62,0,0,1-6.56-6.54,6.62,6.62,0,0,1,6.56-6.54,5.9,5.9,0,0,1,3.71,1.15v-1h3.1V17h-3.1v-.8a7,7,0,0,1-3.71,1.06m-3.51-6.54A3.74,3.74,0,0,0,55,14.3a3.62,3.62,0,0,0,0-7.24,3.75,3.75,0,0,0-3.68,3.62m17.25,6.54c3.1,0,5.66-1.23,5.66-4.33C74.25,11.13,73,10,71,9.46S66.36,9,66.36,7.69c.17-.89.91-1.08,2.23-1.08,1.86,0,1.94,1,2,1.69h3.14c-.25-2.47-2.23-4.16-5.32-4.16-3.3,0-5.29,1.77-5.29,4.07A3.46,3.46,0,0,0,65,11.31a16.34,16.34,0,0,0,3.22.88c1.4.09,2.68.26,2.68,1.24,0,.61-.66,1.41-2.1,1.41-2.15,0-2.56-1.15-2.56-1.95H62.9c.08,2.57,2.23,4.33,5.69,4.33"/></g></g></svg>