<svg xmlns="http://www.w3.org/2000/svg" width="61.24" height="20" viewBox="0 0 61.24 20"><g id="Layer_2" data-name="Layer 2"><g id="Design"><path d="M11.54,3.2A4.27,4.27,0,0,0,12.63.4h0a2.68,2.68,0,0,0,0-.4A4.25,4.25,0,0,0,11,.46,4.3,4.3,0,0,0,9.58,1.52,4.4,4.4,0,0,0,8.42,4.35a2.34,2.34,0,0,0,0,.38A3.73,3.73,0,0,0,11.54,3.2Z"/><path d="M14.07,10.57a4.22,4.22,0,0,1,2.24-3.83,4.84,4.84,0,0,0-3.79-2,5.48,5.48,0,0,0-2.28.4,9.38,9.38,0,0,1-1.67.53,6,6,0,0,1-1.51-.45,5.88,5.88,0,0,0-1.91-.44,4.86,4.86,0,0,0-2.46.69A5.12,5.12,0,0,0,.87,7.33,6.58,6.58,0,0,0,0,10.79a11.12,11.12,0,0,0,.64,3.63,11.72,11.72,0,0,0,1.54,3,9.84,9.84,0,0,0,1.44,1.73A2.55,2.55,0,0,0,5.44,20,5,5,0,0,0,7,19.58a4.89,4.89,0,0,1,1.82-.39,4.74,4.74,0,0,1,1.77.39,4.36,4.36,0,0,0,1.64.4A2.7,2.7,0,0,0,14,19.19a9.64,9.64,0,0,0,1.39-1.67,11.24,11.24,0,0,0,1.07-1.93q.2-.45.36-.93a4.58,4.58,0,0,1-1.39-.91A4.23,4.23,0,0,1,14.07,10.57Z"/><path d="M23.79,5.5,19.73,16.92h1.52l1.15-3.43h4.26l1.15,3.43h1.54L25.28,5.5Zm-1,6.81,1.71-5.09h0l1.7,5.09Z"/><path d="M34.88,8a3,3,0,0,0-2.59,1.4h0V8.13H30.86V19.84H32.3V15.75h.05a2.83,2.83,0,0,0,2.47,1.31c2.07,0,3.51-1.56,3.51-4.13v-.81C38.33,9.51,36.86,8,34.88,8Zm2,4.83c0,1.93-.89,3-2.2,3-1.5,0-2.4-1.19-2.4-3v-.66c0-1.75.89-2.93,2.36-2.93s2.24,1.09,2.24,2.94Z"/><path d="M44.58,8A3,3,0,0,0,42,9.39h-.05V8.13H40.56V19.84H42V15.75h0a2.86,2.86,0,0,0,2.48,1.31c2.07,0,3.51-1.56,3.51-4.13v-.81C48,9.51,46.56,8,44.58,8Zm2,4.83c0,1.93-.89,3-2.2,3-1.5,0-2.4-1.19-2.4-3v-.66c0-1.75.89-2.93,2.36-2.93s2.24,1.09,2.24,2.94Z"/><rect x="50.29" y="4.9" width="1.43" height="12.02"/><path d="M61.24,12.88v-.82C61.24,9.64,59.92,8,57.62,8S54,9.64,54,12v1c0,2.5,1.4,4.11,3.69,4.11a3.25,3.25,0,0,0,3.44-2.53H59.69a1.92,1.92,0,0,1-2,1.33c-1.43,0-2.29-1.15-2.29-2.82v-.16Zm-5.81-1.19a2.2,2.2,0,1,1,4.37,0v0H55.43Z"/></g></g></svg>