<svg xmlns="http://www.w3.org/2000/svg" width="29.18" height="20" viewBox="0 0 29.18 20"><defs><style>.cls-1{fill:#fd0;}.cls-2{fill:#231f20;}</style></defs><g id="Layer_2" data-name="Layer 2"><g id="Design"><path class="cls-1" d="M6.53.09l-6,4.74L.09,12.29l5,5.72L27.71,19.9,29.08,1.49ZM1.87,9.56a1,1,0,1,1,1-.94A1,1,0,0,1,1.87,9.56Z"/><path class="cls-2" d="M5,18.1,0,12.32.47,4.78,6.47,0l0,0L29.18,1.4,27.8,20,5,18.1ZM.65,4.87.18,12.26l4.94,5.67,22.51,1.88L29,1.57,6.56.18.65,4.87ZM6.52.18v0ZM1.87,9.65v0a1,1,0,0,1-1-1h0s0,0,0,0h0a1,1,0,0,1,1-1h0a1.05,1.05,0,0,1,1,1h0v0h0a1,1,0,0,1-1,1h0Zm0-.18a.87.87,0,0,0,.87-.85h0a.88.88,0,0,0-.86-.87h0A.88.88,0,0,0,1,8.6H1a.87.87,0,0,0,.86.86h0Z"/><polygon class="cls-2" points="28.12 4.98 22.52 4.88 22.48 6.63 23.88 6.65 23.81 10.37 26.46 10.42 26.53 6.7 28.09 6.73 28.12 4.98"/><polygon class="cls-2" points="15.97 5.61 16 4.08 10.8 3.98 10.71 9.45 15.9 9.54 15.93 8.04 13.36 7.99 13.37 7.56 15.61 7.6 15.63 6.15 13.39 6.11 13.4 5.56 15.97 5.61"/><polygon class="cls-2" points="26.21 10.91 23.37 10.85 22.03 12.39 21.1 10.7 18.29 10.65 20.66 14.02 20.61 16.41 23.16 16.45 23.2 14.18 26.21 10.91"/><path class="cls-2" d="M22.18,5.26l-1,1.1S19.93,5.6,19.6,6a.36.36,0,0,0-.12.43c.22.46,2.54.35,2.67,2.05,0,.38-.39,1.79-3.17,1.58a9.45,9.45,0,0,1-2.77-.76L17,8.06s1.46.87,2,.64c.38-.16.33-.27.28-.54-.34-.5-1.46-.32-2.25-1-.94-.81-.51-2.22,1.39-2.6A6.22,6.22,0,0,1,22.18,5.26Z"/><path class="cls-2" d="M9,6.3c1.13-.09,2.27-2.75-1.15-2.7l-3.8-.07L4,9l5,.06C10.28,9,11,7,9,6.3ZM6.42,4.68l1,0a.42.42,0,0,1,.46.47.48.48,0,0,1-.48.51l-1,0Zm1.07,3-1.13,0,0-1,1.13,0A.45.45,0,0,1,8,7.2.5.5,0,0,1,7.49,7.71Z"/><path class="cls-2" d="M9.52,12.42c1.13-.09,2.26-2.75-1.16-2.7L4.57,9.65l-.1,5.41,5,.07C10.78,15.14,11.54,13.09,9.52,12.42ZM6.92,10.8l1,0a.42.42,0,0,1,.46.47.47.47,0,0,1-.47.51l-1,0Zm1.08,3-1.13,0,0-1,1.13,0a.45.45,0,0,1,.5.47A.5.5,0,0,1,8,13.83Z"/><path class="cls-2" d="M11.49,10.15l2.46,0s-.11,3.56-.07,3.73.34.35.85.34.77-.21.77-.31.06-3.67.06-3.67l2.44,0s-.06,3.28-.06,3.69-.49,1.88-3.32,1.85S11.44,14,11.42,13.6,11.49,10.15,11.49,10.15Z"/><path class="cls-2" d="M26.6,11.75c.08,0,.15,0,.15.09s-.12.07-.21.07h-.1v-.16Zm.07.26a.16.16,0,0,0,.17-.18c0-.14-.1-.17-.22-.18h-.28v.66h.1V12h.13l.16.3h.11Zm-.1-.52a.49.49,0,0,1,.49.5.5.5,0,0,1-1,0A.49.49,0,0,1,26.57,11.49Zm0,1.07a.58.58,0,0,0,.6-.57A.59.59,0,1,0,26,12,.57.57,0,0,0,26.55,12.56Z"/></g></g></svg>