<?xml version="1.0" encoding="UTF-8"?>
<svg width="91px" height="21px" viewBox="0 0 91 21" version="1.1" xmlns="http://www.w3.org/2000/svg" xmlns:xlink="http://www.w3.org/1999/xlink">
    <title>amazon ca</title>
    <g id="Page-1" stroke="none" stroke-width="1" fill="none" fill-rule="evenodd">
        <g id="Artboard" transform="translate(-374.000000, -296.000000)" fill-rule="nonzero">
            <g id="amazon-ca" transform="translate(374.166667, 296.281648)">
                <g id="amazon-copy-3" transform="translate(0.000000, 0.000000)">
                    <path d="M38.9881186,14.8158898 C35.3369076,17.5072222 30.0445869,18.943128 25.4880584,18.943128 C19.098987,18.943128 13.3472265,16.5799967 8.99579761,12.6498253 C8.65393018,12.3408197 8.96022337,11.9195622 9.37052688,12.1603404 C14.0666399,14.8924631 19.8730658,16.5363896 25.8709249,16.5363896 C29.9159563,16.5363896 34.3659707,15.6994038 38.4575303,13.9626296 C39.0756458,13.7000479 39.5925677,14.3672997 38.9881186,14.8158898" id="path8" fill="#FF9900"></path>
                    <path d="M40.5061268,13.07922 C40.0411579,12.4830123 37.4209741,12.7974428 36.2448333,12.9370273 C35.8865871,12.9808431 35.8319217,12.6690208 36.1545936,12.4447257 C38.2414768,10.975958 41.6656802,11.3998236 42.0650298,11.8921252 C42.464275,12.3872436 41.9611238,15.8196886 40.0000545,17.4579816 C39.6991862,17.7096094 39.4119841,17.5755539 39.5460396,17.2420324 C39.9864925,16.1424648 40.9738082,13.67814 40.5061268,13.07922" id="path10" fill="#FF9900"></path>
                    <path d="M36.32704,2.07613787 L36.32704,0.648473593 C36.32704,0.432420052 36.4911406,0.287514997 36.6879986,0.287514997 L43.0798868,0.287514997 C43.2849864,0.287514997 43.4490869,0.435236781 43.4490869,0.648473593 L43.4490869,1.87103827 C43.4463745,2.07613787 43.2740325,2.34424873 42.9677393,2.76811427 L39.655579,7.49698485 C40.8863852,7.46683542 42.1855232,7.65013144 43.3013652,8.2792009 C43.5529929,8.42139355 43.6213247,8.62930988 43.6405202,8.83440947 L43.6405202,10.3578425 C43.6405202,10.5656545 43.4108003,10.8091451 43.1701265,10.6832269 C41.203528,9.65219977 38.5915857,9.54005223 36.417384,10.6941808 C36.1958013,10.8145699 35.9632647,10.5738961 35.9632647,10.3659797 L35.9632647,8.91922431 C35.9632647,8.68668769 35.9659771,8.29015485 36.1985137,7.93733347 L40.0357331,2.43438406 L36.6962401,2.43438406 C36.4910362,2.43438406 36.32704,2.289479 36.32704,2.07613787" id="path12" fill="#000000"></path>
                    <path d="M13.0108882,10.9841996 L11.0661977,10.9841996 C10.8802936,10.9705332 10.7325718,10.8309487 10.7189054,10.6532861 L10.7189054,0.67309389 C10.7189054,0.473419106 10.8858227,0.3148477 11.0936347,0.3148477 L12.9069822,0.3148477 C13.095703,0.322984917 13.2461372,0.467994295 13.2598036,0.648473593 L13.2598036,1.95303638 L13.2953778,1.95303638 C13.768484,0.692185053 14.6574228,0.104114647 15.8553671,0.104114647 C17.0724027,0.104114647 17.8328152,0.692185053 18.3797822,1.95303638 C18.8501759,0.692185053 19.919594,0.104114647 21.0655854,0.104114647 C21.880559,0.104114647 22.7722101,0.440557269 23.3164648,1.1953363 C23.9317636,2.03503449 23.8059497,3.25478244 23.8059497,4.32420052 L23.8033416,10.622928 C23.8033416,10.8226028 23.6364243,10.9839909 23.4286123,10.9839909 L21.4867385,10.9839909 C21.2925929,10.9703246 21.1367339,10.8143613 21.1367339,10.622928 L21.1367339,5.33352839 C21.1367339,4.91237525 21.1749162,3.86215265 21.0820685,3.46280308 C20.9370591,2.79273457 20.5021353,2.60401373 19.9387895,2.60401373 C19.4683958,2.60401373 18.9759898,2.91854846 18.776315,3.42180403 C18.5767446,3.9250596 18.5959401,4.76736587 18.5959401,5.33352839 L18.5959401,10.6231367 C18.5959401,10.8228114 18.4290228,10.9841996 18.2212108,10.9841996 L16.279337,10.9841996 C16.0823746,10.9705332 15.9293323,10.8145699 15.9293323,10.6231367 L15.9266199,5.33352839 C15.9266199,4.22039884 16.109916,2.58210584 14.7286756,2.58210584 C13.3311607,2.58210584 13.3858261,4.17939979 13.3858261,5.33352839 L13.3858261,10.6231367 C13.3855132,10.8228114 13.2187002,10.9841996 13.0108882,10.9841996" id="path14" fill="#000000"></path>
                    <path d="M48.9518277,0.10421897 C51.8373057,0.10421897 53.3990254,2.58210584 53.3990254,5.73298228 C53.3990254,8.77703166 51.6732051,11.1921159 48.9518277,11.1921159 C46.1184071,11.1921159 44.5757785,8.71422904 44.5757785,5.62636387 C44.5757785,2.51919889 46.1376025,0.10421897 48.9518277,0.10421897 M48.9682065,2.14175722 C47.5351174,2.14175722 47.4447619,4.09458495 47.4447619,5.31162049 C47.4447619,6.53147277 47.4255779,9.13517353 48.9517234,9.13517353 C50.4586734,9.13517353 50.5298218,7.03472834 50.5298218,5.75468152 C50.5298218,4.91227093 50.4942476,3.90575979 50.2400117,3.10716498 C50.0212458,2.41247616 49.586322,2.14175722 48.9682065,2.14175722" id="path16" fill="#000000"></path>
                    <path d="M57.140476,10.9841996 L55.204027,10.9841996 C55.0098814,10.9705332 54.8540224,10.8146742 54.8540224,10.6231367 L54.85131,0.640336376 C54.8676887,0.457144673 55.0290769,0.3148477 55.2260392,0.3148477 L57.0284328,0.3148477 C57.1979581,0.322984917 57.3374384,0.437949187 57.375725,0.593808187 L57.375725,2.11984933 L57.4112993,2.11984933 C57.9555539,0.755091999 58.7185745,0.104114647 60.0615282,0.104114647 C60.9339839,0.104114647 61.7846361,0.418649377 62.3316031,1.28015114 C62.8402835,2.07874595 62.8402835,3.42169971 62.8402835,4.38710747 L62.8402835,10.6694562 C62.8184799,10.8445107 62.6570918,10.9841996 62.4655542,10.9841996 L60.5155432,10.9841996 C60.3377763,10.9704289 60.1901588,10.8390859 60.1709634,10.6694562 L60.1709634,5.24871355 C60.1709634,4.1574919 60.2966729,2.56019795 58.9538235,2.56019795 C58.4807173,2.56019795 58.0457935,2.87744508 57.82974,3.35879276 C57.5563086,3.96866674 57.5207344,4.57593263 57.5207344,5.24871355 L57.5207344,10.6230323 C57.518022,10.8228114 57.3483923,10.9841996 57.140476,10.9841996" id="path18" fill="#000000"></path>
                    <path d="M34.6941718,9.15436901 C34.338638,8.66206739 33.9611964,8.26271782 33.9611964,7.35197547 L33.9611964,4.32159244 C33.9611964,3.03883322 34.051436,1.86008433 33.1051194,0.976674675 C32.3584776,0.260077971 31.1222466,0.00845018678 30.17593,0.00845018678 C28.3270082,0.00845018678 26.2593206,0.697609864 25.8272135,2.98416781 C25.7806853,3.22755406 25.9584522,3.35608036 26.1170236,3.3916546 L28.0014152,3.59404179 C28.1791821,3.58580025 28.3078128,3.41356249 28.3405703,3.238508 C28.5019584,2.45086714 29.161073,2.07071305 29.90229,2.07071305 C30.3043519,2.07071305 30.7583669,2.21843484 30.9936159,2.57668103 C31.2671516,2.9760306 31.2315774,3.52299763 31.2315774,3.98514982 L31.2315774,4.2367776 C30.1046772,4.3653039 28.6304847,4.44740633 27.574733,4.91237525 C26.354985,5.43753871 25.5016205,6.5123816 25.5016205,8.09048007 C25.5016205,10.1117439 26.7733214,11.1208631 28.4117188,11.1208631 C29.7928548,11.1208631 30.5505549,10.7954787 31.6172606,9.70676085 C31.970082,10.218258 32.0876543,10.4671733 32.7331025,11.0032907 C32.8781119,11.079864 33.064016,11.0716225 33.1925423,10.9568669 L33.1952547,10.9622917 C33.5836504,10.6176075 34.2891888,10.0023087 34.685826,9.67139526 C34.844606,9.54005223 34.8172733,9.3294235 34.6941718,9.15436901 Z M30.8678021,8.2792009 C30.5586921,8.82627226 30.0663905,9.16261055 29.5222402,9.16261055 C28.7755984,9.16261055 28.3378579,8.59373563 28.3378579,7.75403744 C28.3378579,6.09665328 29.8230043,5.7957849 31.2315774,5.7957849 L31.2315774,6.21693804 C31.2316817,6.97453379 31.2507729,7.60641998 30.8678021,8.2792009 Z" id="Shape" fill="#000000"></path>
                    <path d="M9.2008972,9.15436901 C8.84536342,8.66206739 8.46802607,8.26271782 8.46802607,7.35197547 L8.46802607,4.32159244 C8.46802607,3.03883322 8.55826572,1.86008433 7.61194912,0.976674675 C6.86530731,0.260077971 5.62897195,0.00845018678 4.68275968,0.00845018678 C2.83383795,0.00845018678 0.768862674,0.697609864 0.334043186,2.98416781 C0.290227403,3.22755406 0.46528189,3.35608036 0.623853296,3.3916546 L2.51106168,3.59404179 C2.68611616,3.58580025 2.81464246,3.41356249 2.8475043,3.238508 C3.00889243,2.45086714 3.67082373,2.07071305 4.41193641,2.07071305 C4.81128598,2.07071305 5.26530095,2.21843484 5.50326238,2.57668103 C5.77398133,2.9760306 5.73840709,3.52299763 5.73840709,3.98514982 L5.73840709,4.2367776 C4.61161119,4.3653039 3.13741873,4.44740633 2.081667,4.91237525 C0.864631457,5.43753871 0.00855451008,6.5123816 0.00855451008,8.09048007 C0.00855451008,10.1117439 1.28307219,11.1208631 2.91865279,11.1208631 C4.3026056,11.1208631 5.05748895,10.7954787 6.12419463,9.70676085 C6.47972841,10.218258 6.59458836,10.4671733 7.24003658,11.0032907 C7.38504596,11.079864 7.57095006,11.0716225 7.69947636,10.9568669 L7.7050055,10.9622917 C8.09340112,10.6176075 8.79893955,10.0023087 9.19557672,9.67139526 C9.35414812,9.54005223 9.3267111,9.3294235 9.2008972,9.15436901 Z M5.37463176,8.2792009 C5.06552184,8.82627226 4.57603695,9.16261055 4.02906992,9.16261055 C3.28242811,9.16261055 2.8475043,8.59373563 2.8475043,7.75403744 C2.8475043,6.09665328 4.33254638,5.7957849 5.73840709,5.7957849 L5.73840709,6.21693804 C5.73840709,6.97453379 5.75749825,7.60641998 5.37463176,8.2792009 Z" id="Shape" fill="#000000"></path>
                </g>
                <path d="M66.5022267,11.076131 C66.7944729,11.076131 67.0489706,10.9774979 67.2657199,10.7802318 C67.4824692,10.5829656 67.5908438,10.3114201 67.5908438,9.96559547 C67.5908438,9.66360773 67.4824692,9.40667461 67.2657199,9.19479612 C67.0489706,8.98291762 66.7871667,8.87697837 66.4803082,8.87697837 C66.1734497,8.87697837 65.9152989,8.98413531 65.7058558,9.1984492 C65.4964127,9.41276308 65.3916911,9.6684785 65.3916911,9.96559547 C65.3916911,10.3162909 65.5012835,10.589054 65.7204681,10.7838848 C65.9396528,10.9787156 66.2002389,11.076131 66.5022267,11.076131 Z M74.8682613,11.076131 C75.6134891,11.076131 76.2661723,10.9567972 76.8263108,10.7181294 C77.3864494,10.4794617 77.8467372,10.1689501 78.2071741,9.78659468 C78.5676111,9.40423923 78.8318504,9.01457763 78.999892,8.61760987 C79.1679335,8.22064211 79.2519543,7.85168128 79.2519543,7.51072738 C79.2519543,7.24283503 79.1594097,7.01877961 78.9743204,6.83856112 C78.7892312,6.65834263 78.5676111,6.56823338 78.3094603,6.56823338 C78.0074726,6.56823338 77.7882879,6.65712493 77.6519064,6.83490804 C77.5155248,7.01269115 77.4010617,7.24283503 77.3085171,7.52533969 C77.0893324,8.1244444 76.7642085,8.57864371 76.3331454,8.88793761 C75.9020822,9.1972315 75.3748214,9.35187845 74.7513628,9.35187845 C74.1766119,9.35187845 73.6749226,9.21549689 73.2462949,8.94273377 C72.8176671,8.66997065 72.4864547,8.25717289 72.2526578,7.70434049 C72.0188608,7.15150809 71.9019623,6.45864106 71.9019623,5.62573938 C71.9019623,4.37882225 72.1662016,3.41684517 72.6946802,2.73980814 C73.2231587,2.06277111 73.9330734,1.72425259 74.8244244,1.72425259 C75.3845629,1.72425259 75.8558099,1.85576338 76.2381654,2.11878496 C76.6205208,2.38180654 76.9529509,2.7787743 77.2354555,3.30968823 C77.4059325,3.63115905 77.5605794,3.85764986 77.6993964,3.98916065 C77.8382133,4.12067144 78.0464387,4.18642684 78.3240726,4.18642684 C78.5724819,4.18642684 78.7843604,4.09144682 78.9597081,3.90148679 C79.1350558,3.71152676 79.2227297,3.49234211 79.2227297,3.24393284 C79.2227297,2.79095123 79.0425112,2.30996269 78.6820742,1.80096722 C78.3216372,1.29197175 77.8029002,0.86456168 77.1258632,0.518737008 C76.4488262,0.172912336 75.6768091,0 74.809812,0 C74.0986796,0 73.4289487,0.126640021 72.8006194,0.379920062 C72.1722901,0.633200103 71.6243285,1.00216093 71.1567345,1.48680255 C70.6891406,1.97144417 70.3299213,2.55471888 70.0790767,3.23662668 C69.828232,3.91853449 69.7028097,4.69055154 69.7028097,5.55267783 C69.7028097,6.08359176 69.7527351,6.58528108 69.8525859,7.05774577 C69.9524366,7.53021046 70.1022128,7.97466823 70.3019144,8.39111906 C70.501616,8.8075699 70.7427191,9.18383689 71.0252237,9.51992002 C71.3418238,9.89009854 71.6888662,10.1884332 72.0663508,10.414924 C72.4438355,10.6414148 72.8639394,10.8082387 73.3266626,10.9153956 C73.7893857,11.0225526 74.303252,11.076131 74.8682613,11.076131 Z M89.4372215,11.076131 C89.7294677,11.076131 89.9790947,10.9726272 90.1861024,10.7656195 C90.3931101,10.5586117 90.496614,10.3309032 90.496614,10.082494 C90.496614,9.84382622 90.3870217,9.46147078 90.167837,8.93542761 L90.167837,8.93542761 L87.3695796,2.02380495 C87.2380688,1.67798027 87.1296942,1.40156408 87.0444557,1.19455635 C86.9592173,0.987548623 86.8544957,0.793935514 86.7302911,0.613717023 C86.6060864,0.433498532 86.4429156,0.286157739 86.2407787,0.171694643 C86.0386417,0.0572315478 85.7865794,0 85.4845916,0 C85.1874747,0 84.9378477,0.0572315478 84.7357107,0.171694643 C84.5335738,0.286157739 84.370403,0.435933917 84.2461984,0.621023178 C84.1219937,0.806112439 84.0050952,1.03869171 83.8955029,1.31876098 C83.7859106,1.59883026 83.6921483,1.83871569 83.6142159,2.03841726 L83.6142159,2.03841726 L80.8744078,8.99387685 C80.7623801,9.27151075 80.6820124,9.48826001 80.6333047,9.64412465 C80.584597,9.79998929 80.5602431,9.95098316 80.5602431,10.0971063 C80.5602431,10.3503863 80.6649647,10.5768771 80.8744078,10.7765787 C81.0838509,10.9762803 81.324954,11.076131 81.5977172,11.076131 C81.919188,11.076131 82.1505496,10.9823687 82.2918019,10.7948441 C82.4330542,10.6073194 82.6035312,10.2456648 82.8032327,9.70988005 L82.8032327,9.70988005 L83.3146636,8.3363229 L87.669132,8.3363229 L88.1805628,9.68065543 C88.2487536,9.84626161 88.330339,10.0374393 88.425319,10.2541886 C88.5202991,10.4709379 88.6091906,10.6316733 88.6919937,10.7363948 C88.7747968,10.8411164 88.877083,10.9239195 88.9988522,10.9848041 C89.1206215,11.0456887 89.2667446,11.076131 89.4372215,11.076131 Z M87.0846396,6.70705033 L83.8845437,6.70705033 L85.4699793,2.28682653 L87.0846396,6.70705033 Z" id=".CA" fill="#000000"></path>
            </g>
        </g>
    </g>
</svg>