<svg xmlns="http://www.w3.org/2000/svg" width="20" height="20" viewBox="0 0 20 20"><defs><style>.cls-1{fill:#f48120;}.cls-1,.cls-2{fill-rule:evenodd;}.cls-2{fill:#fff;}</style></defs><g id="Layer_2" data-name="Layer 2"><g id="Design"><polygon class="cls-1" points="0 0 20 0 20 20 0 20 0 0 0 0"/><path class="cls-2" d="M4.44,15.83l-.52.52L3.58,16l.51-.52L2.75,14.15c-.21-.22-.24-.26-.52-.12A.23.23,0,0,1,2,14c-.18-.17,0-.38,0-.4l1.67-1.67s.23-.2.4,0a.24.24,0,0,1,0,.29c-.14.27-.1.3.12.52L7.29,15.8c.22.22.25.26.52.12a.24.24,0,0,1,.29,0c.17.17,0,.38,0,.4L6.4,18s-.23.2-.4,0a.22.22,0,0,1,0-.29c.14-.27.1-.3-.12-.52L4.44,15.83Zm0,4.17H3.74c.14-.27.1-.3-.12-.52L.53,16.38c-.22-.22-.25-.26-.52-.12H0v-.68l1.42-1.42s.23-.21.4,0a.23.23,0,0,1,0,.29c-.14.28-.1.3.12.52L5.06,18c.22.22.25.26.52.12a.22.22,0,0,1,.29,0c.17.17,0,.37,0,.4L4.41,20Z"/><path class="cls-2" d="M12.91,2.67l1.55-1.55,4.42,4.41L17.33,7.09s-.23.2-.41,0a.24.24,0,0,1,0-.29c.15-.27.11-.3-.11-.52l-3.1-3.09c-.22-.22-.25-.26-.52-.12a.22.22,0,0,1-.29,0c-.17-.17,0-.37,0-.4ZM15.58,0h.93l.73.74s.14.14,0,.32-.19.07-.31,0a1.62,1.62,0,0,0-1.82.12L14.73.85,15.58,0ZM20,3.41v1l-.85.86-.35-.34A1.72,1.72,0,0,0,19,3.07c-.05-.13-.11-.26,0-.37a.24.24,0,0,1,.37,0l.68.68Zm-3.3-.59a.88.88,0,0,0-.11-.93c-.07-.13-.12-.26,0-.38s.36.06.41.1l1.28,1.28s.29.23.1.41-.25.07-.38,0a.9.9,0,0,0-.93-.11l-.37-.37Z"/><path class="cls-2" d="M11.22,19.27l-.73.73H10.1l0-.07c0-.08-.05-.17-.1-.22L8.3,18c-.05,0-.14-.14-.22-.1s-.16.1-.25,0,0-.18.06-.24l.85-.85,2.48,2.48Z"/><path class="cls-2" d="M16.78,8.74l.82-.81L19.71,10c.12.12.14.15.29.07v.38l-.8.8s-.13.11-.22,0a.14.14,0,0,1,0-.17C19,11,19,11,18.9,10.85L16.78,8.74ZM19,8.07a.15.15,0,0,1,0,.21c-.09.09-.19,0-.27,0A1.07,1.07,0,0,0,17.94,8l-.19-.19.47-.48.78.77Zm-2.84,1.3.47-.48.2.19a1.06,1.06,0,0,0,.27.77c.06.08.13.19,0,.28a.14.14,0,0,1-.21,0l-.77-.77Z"/><path class="cls-2" d="M6,10.07a.56.56,0,0,0,.13.72l3.06,3.06a.55.55,0,0,0,.72.12l.34.35c-1.36,1.13-2.95.71-4.12-.47s-1.61-2.77-.47-4.13l.34.35Zm4.18,3.64a.57.57,0,0,0-.13-.73L7,9.92a.55.55,0,0,0-.72-.12L6,9.46c1.36-1.14,3-.71,4.13.46s1.6,2.77.46,4.13l-.34-.34Z"/><path class="cls-2" d="M16.71,7.34a.24.24,0,0,0-.29,0c-.27.14-.3.1-.52-.12L12.81,4.1c-.22-.22-.27-.25-.12-.52a.24.24,0,0,0,0-.29c-.17-.17-.38,0-.4,0L10.7,4.88,12,7.24h0L9.52,6.07,8,7.56C8,7.63,7.77,7.81,8,8s.31,0,.38-.07.21,0,.35,0a1.84,1.84,0,0,1,.36.15l4.88,2.42.17-.17L11.71,5.89l2.75,2.75c.21.21.26.24.11.51a.24.24,0,0,0,0,.29c.17.18.38,0,.4,0l1.67-1.67s.21-.23,0-.4Z"/><path class="cls-2" d="M12.09,10.46l-1-1L9.77,8.8h0l2,2c.64.83,0,1,.29,1.23s.41-.07.48-.14l.67-.67c.07-.06.32-.29.13-.47s-.4.35-1.23-.29Z"/><path class="cls-2" d="M8.89,16.64a1.56,1.56,0,0,1,2.31.16,1.58,1.58,0,0,1,.17,2.32l-.19-.19c.17-.23,0-.43-.13-.56L9.63,17c-.12-.13-.32-.3-.55-.13l-.19-.19Z"/><path class="cls-2" d="M10.12,15.4l.88-.88L13.48,17l-.87.87a.16.16,0,0,1-.23,0,.13.13,0,0,1,0-.16c.08-.15.05-.17-.07-.29l-1.74-1.74c-.12-.12-.14-.15-.29-.07a.15.15,0,0,1-.17,0c-.09-.1,0-.22,0-.23Zm1-1,.74-.74.67.68s.08.08,0,.18-.1,0-.17,0a.91.91,0,0,0-1,.07l-.19-.2Zm2.29,2.3a1,1,0,0,0,.08-1.05c0-.07-.06-.15,0-.21a.14.14,0,0,1,.21,0l.67.66-.77.77-.19-.19Zm-1.18-1.19A.49.49,0,0,0,12.2,15c0-.07-.07-.15,0-.22s.2,0,.23.06l.72.72s.16.13,0,.23-.14,0-.21,0a.51.51,0,0,0-.53-.06l-.2-.21Z"/><path class="cls-2" d="M13.17,12.35a1.81,1.81,0,0,1,.78-.53,1.1,1.1,0,0,1,1.29,1.29,1.91,1.91,0,0,1-.53.78l-.2-.19c.16-.24,0-.38-.13-.55l-.5-.5c-.15-.15-.31-.25-.52-.1l-.19-.2Zm-.59,1.34c-.12-.12-.14-.15-.29-.07a.12.12,0,0,1-.16,0c-.1-.09,0-.21,0-.22L13,12.5l2.11,2.11c.13.13.14.15.3.07a.12.12,0,0,1,.16,0c.1.09,0,.21,0,.22l-.94.94a.13.13,0,0,1-.2,0,.12.12,0,0,1,0-.16c.08-.15,0-.15-.08-.27l-1.74-1.74Z"/><path class="cls-2" d="M15.28,10.54a.3.3,0,0,0,.07.4l1.72,1.72a.3.3,0,0,0,.4.07l.2.19a1.64,1.64,0,0,1-2.33-.25,1.65,1.65,0,0,1-.26-2.33l.2.2Zm2.34,2a.31.31,0,0,0-.07-.41l-1.72-1.71a.3.3,0,0,0-.4-.07l-.2-.2a1.65,1.65,0,0,1,2.33.26,1.65,1.65,0,0,1,.26,2.33l-.2-.2Z"/><path class="cls-2" d="M2.4,7.57l.76-.76,2,2c.11.12.13.14.27.07a.12.12,0,0,1,.15,0,.14.14,0,0,1,0,.21L4.67,10s-.12.11-.21,0a.13.13,0,0,1,0-.15c.08-.14.06-.16-.06-.27l-2-2ZM4.48,7a.13.13,0,0,1,0,.19c-.09.09-.19,0-.27,0a1,1,0,0,0-.72-.25L3.3,6.67l.45-.45L4.48,7ZM1.81,8.16l.45-.45.18.18a1,1,0,0,0,.25.73c.06.07.12.17,0,.26a.15.15,0,0,1-.2,0l-.72-.73Z"/><path class="cls-2" d="M6.77,7.17c.11.12.13.14.27.06a.12.12,0,0,1,.16,0c.09.09,0,.2,0,.21l-.89.88a.14.14,0,0,1-.21,0,.12.12,0,0,1,0-.15c.07-.14,0-.16-.07-.28L4.37,6.3c-.12-.12-.13-.14-.28-.06a.11.11,0,0,1-.15,0C3.85,6.13,4,6,4,6l.88-.88s.12-.11.21,0a.11.11,0,0,1,0,.15c-.07.14-.05.16.06.28L6.77,7.17ZM6.44,6l-.28.27L6,6.1l.28-.27-.71-.71C5.43,5,5.42,5,5.27,5.06a.11.11,0,0,1-.15,0c-.09-.09,0-.2,0-.21L6,4a.14.14,0,0,1,.21,0,.11.11,0,0,1,0,.15c-.07.15,0,.16.06.28L8,6c.11.12.13.14.27.06a.13.13,0,0,1,.15,0c.1.09,0,.2,0,.21l-.89.88a.14.14,0,0,1-.21,0,.12.12,0,0,1,0-.15c.07-.14,0-.16-.07-.27L6.44,6Z"/><path class="cls-2" d="M6.32,3.65l.82-.82L9.47,5.16,8.65,6s-.12.11-.21,0a.12.12,0,0,1,0-.16c.08-.14.06-.16-.06-.27L6.73,3.94c-.12-.11-.14-.13-.28-.06a.12.12,0,0,1-.15,0,.16.16,0,0,1,0-.22Zm1-1L8,2l.63.64s.07.07,0,.17-.1,0-.16,0a.86.86,0,0,0-1,.07l-.18-.18ZM9.43,4.84a.89.89,0,0,0,.08-1c0-.07,0-.14,0-.19a.13.13,0,0,1,.2,0l.62.63L9.61,5l-.18-.18ZM8.32,3.73a.46.46,0,0,0-.05-.49c0-.07-.07-.14,0-.2s.2,0,.22,0l.68.68s.15.12.05.21S9.08,4,9,4a.49.49,0,0,0-.49-.06l-.2-.19Z"/></g></g></svg>