<svg xmlns="http://www.w3.org/2000/svg" width="47.03" height="20" viewBox="0 0 47.03 20"><defs><style>.cls-1{fill:#dadada;}.cls-2{fill:#cacaca;}.cls-3{fill:#484848;}.cls-4{fill:#f6f6f6;}.cls-5{fill:#6d6d6d;}.cls-6{fill:#505050;}</style></defs><g id="Layer_2" data-name="Layer 2"><g id="Design"><path d="M34.45,5.55A9,9,0,0,0,33.16,2.4,4.21,4.21,0,0,0,28.27.47a10.64,10.64,0,0,0-4.34,2.47,16.09,16.09,0,0,0-2.36,2.52.52.52,0,0,1-.49.23c-.51,0-1,0-1.56,0a14.54,14.54,0,0,1,4.47-4A4,4,0,0,0,22,.57,5.78,5.78,0,0,0,18.33,1a13.73,13.73,0,0,0-5.67,4.76A11.43,11.43,0,0,0,10.5,11a6.42,6.42,0,0,0,5.11,7.34,7.47,7.47,0,0,0,4.22-.22,7.67,7.67,0,0,1-2.21-3.45h2.17a.24.24,0,0,1,.23.16,6.58,6.58,0,0,0,6.64,3.57,5.84,5.84,0,0,0,2.88-.93A15.19,15.19,0,0,0,32.59,15a.9.9,0,0,1,.19-.2.31.31,0,0,1-.06.34C30.91,18,28.46,19.81,25,20a7.07,7.07,0,0,1-4.57-1.36.39.39,0,0,0-.49,0,8.42,8.42,0,0,1-6.8.59A6.17,6.17,0,0,1,12,18.62a.39.39,0,0,0-.44,0,9,9,0,0,1-4.84,1,7.26,7.26,0,0,1-6.58-6,8.78,8.78,0,0,1,1-5.64A15.64,15.64,0,0,1,10,.48,6.5,6.5,0,0,1,13.68.24a4.48,4.48,0,0,1,2.07,1.13.29.29,0,0,0,.39,0A10.74,10.74,0,0,1,19.7.16,5.07,5.07,0,0,1,24.18,1.4c.14.13.23.06.35,0A11.5,11.5,0,0,1,28.2.1,5.07,5.07,0,0,1,32.48,1,5.6,5.6,0,0,1,34.54,5a3.62,3.62,0,0,1,0,.57Z"/><path d="M29.32,10c.35-1,.73-2,1.11-2.91a.45.45,0,0,1,.51-.34c.44,0,.88,0,1.31,0,0,.12,0,.21-.06.3-.76,2-1.54,4-2.3,6.05a.35.35,0,0,1-.39.28c-.54,0-1.08,0-1.62,0-.21,0-.27,0-.24-.27.13-.88.23-1.76.35-2.64,0,0,0-.06,0-.08s0,0-.06,0c-.37.94-.75,1.87-1.12,2.81,0,.15-.15.17-.28.17-.56,0-1.12,0-1.68,0-.24,0-.27-.07-.24-.28.16-1.16.31-2.32.46-3.48.11-.87.23-1.74.33-2.61,0-.19.09-.26.28-.25a8.51,8.51,0,0,0,1.13,0c.33,0,.35.09.31.37-.14.89-.25,1.79-.37,2.69-.05.1,0,.2,0,.29a.14.14,0,0,0,0,.06s0,0,0,0,.05-.13.1-.17c.39-1,.78-2,1.15-3,.08-.19.16-.26.37-.25a10,10,0,0,0,1.1,0c.26,0,.28.07.24.29-.15.94-.27,1.87-.41,2.81-.06.09,0,.2,0,.29a1,1,0,0,1-.06.16s0-.07,0-.1A.55.55,0,0,1,29.32,10Z"/><path d="M17.42,6.88l-.1.41c.13,0,.18-.08.25-.14a1.73,1.73,0,0,1,1.5-.36.77.77,0,0,1,.65.86,11.45,11.45,0,0,1-.45,2.09c-.29,1.16-.61,2.32-.9,3.49-.05.19-.12.26-.32.25H16.29l1.18-4.6q.09-.32.15-.63c0-.11.07-.25-.09-.31a.3.3,0,0,0-.37.14,1.2,1.2,0,0,0-.15.37c-.41,1.55-.82,3.11-1.22,4.67-.07.28-.17.4-.48.38-.46,0-.94,0-1.4,0-.18,0-.24,0-.19-.22q.81-3.1,1.61-6.21c0-.12.06-.2.21-.2Z"/><path class="cls-1" d="M26.69,10.17a.59.59,0,0,1,.06-.32c0,.07,0,.15.06.2l-.07.24C26.64,10.29,26.67,10.23,26.69,10.17Z"/><path class="cls-2" d="M29.2,10.17a.66.66,0,0,1,.06-.31l.06.13-.06.24Q29.17,10.26,29.2,10.17Z"/><path class="cls-3" d="M27.93,10.43c0-.07,0-.15.09-.12s0,.12,0,.17Z"/><path class="cls-4" d="M15.62,1.7a17.09,17.09,0,0,0-3.33,2.57A12.5,12.5,0,0,0,8.73,10a7.56,7.56,0,0,0,1.32,7,8,8,0,0,0,.56.6c.19.19.4.35.62.55a5.77,5.77,0,0,1-1.26.26,8.1,8.1,0,0,1-4.72-.8A6,6,0,0,1,2,11.45,12.32,12.32,0,0,1,5.71,4,12.09,12.09,0,0,1,10.42.84a5.12,5.12,0,0,1,4,0A4.4,4.4,0,0,1,15.62,1.7Z"/><path class="cls-5" d="M26.69,10.17l0,.12-.07.2A.3.3,0,0,1,26.69,10.17Z"/><path class="cls-6" d="M29.2,10.17l.06.06a.3.3,0,0,1-.1.2A.25.25,0,0,1,29.2,10.17Z"/><path d="M41.84,6.83a9.6,9.6,0,0,1-1.07,0c-.33,0-.62,0-.69.47a1.44,1.44,0,0,0-2.36.13,3.71,3.71,0,0,0-.37.9c-.19.72-.37,1.44-.56,2.16a4.19,4.19,0,0,0-.17.87.81.81,0,0,0,.67.89,1.77,1.77,0,0,0,.76,0,3.12,3.12,0,0,0,.84-.38,5.83,5.83,0,0,1-.24.83.39.39,0,0,1-.41.26c-.19,0-.22-.16-.19-.32s-.07-.1-.14-.1c-.49,0-1,0-1.47,0-.15,0-.21.06-.24.21A.89.89,0,0,0,36.91,14a3.83,3.83,0,0,0,2.52-.19,1.77,1.77,0,0,0,1.08-1.14C41,10.77,41.5,8.9,42,7,42,6.87,42,6.83,41.84,6.83ZM39.5,9.39c-.12.46-.24.92-.37,1.38a1.18,1.18,0,0,1-.12.28.28.28,0,0,1-.33.16c-.17-.05-.13-.21-.1-.31.19-.8.4-1.58.6-2.37a1.39,1.39,0,0,1,.24-.59.3.3,0,0,1,.31-.09c.1,0,.1.12.12.21C39.73,8.5,39.62,9,39.5,9.39Z"/><path d="M46.86,6.8h-.92c-.35,0-.76-.11-.85.48a1.17,1.17,0,0,0-.77-.56,1.51,1.51,0,0,0-1.75,1,21,21,0,0,0-.91,3.48.83.83,0,0,0,.85,1,2.06,2.06,0,0,0,1.4-.42,4.6,4.6,0,0,1-.26.88.37.37,0,0,1-.39.22c-.18,0-.21-.14-.2-.28s-.11-.12-.19-.12H41.43c-.12,0-.17,0-.2.17a.9.9,0,0,0,.67,1.2,3.75,3.75,0,0,0,1.91,0,2,2,0,0,0,1.73-1.38c.52-1.85,1-3.71,1.48-5.57C47.06,6.84,47,6.79,46.86,6.8Zm-2.55,3.39c-.06.21-.12.43-.19.64a.92.92,0,0,1-.13.24.27.27,0,0,1-.31.08c-.13,0-.1-.16-.08-.26.08-.38.17-.77.27-1.15s.27-1,.4-1.51a.67.67,0,0,1,.21-.36.23.23,0,0,1,.28,0c.1,0,.08.15.1.24C44.67,8.77,44.49,9.48,44.31,10.19Z"/><path d="M23.74,6.84A2.8,2.8,0,0,0,20.17,8.5a21.58,21.58,0,0,0-.87,3.34,1.25,1.25,0,0,0,.85,1.56,2.92,2.92,0,0,0,3.42-1.06,5,5,0,0,0,.59-1.67c-.55,0-1.07,0-1.58,0-.28,0-.37.09-.42.34a4.73,4.73,0,0,1-.36,1.16.36.36,0,0,1-.46.21c-.19-.06-.12-.24-.09-.37.12-.54.27-1.07.39-1.6,0-.16.14-.15.26-.15H24c.11,0,.23,0,.28-.15a12.86,12.86,0,0,0,.34-1.52A1.39,1.39,0,0,0,23.74,6.84Zm-1,1.43c0,.21-.12.41-.15.62s-.13.35-.37.29-.29,0-.21-.26.15-.52.23-.79a.31.31,0,0,1,.4-.23C22.86,8,22.78,8.14,22.76,8.27Z"/><path d="M35.56,6.87a2.68,2.68,0,0,0-3.37,1.85c-.3.91-.52,1.84-.73,2.77a2.72,2.72,0,0,0-.05.64,1.13,1.13,0,0,0,.7,1.06,3,3,0,0,0,3-.48,3.7,3.7,0,0,0,1-2.11c-.48,0-1,0-1.42,0-.31,0-.48.05-.52.4a4.61,4.61,0,0,1-.19.73,1,1,0,0,1-.2.41.36.36,0,0,1-.4.1c-.14-.06-.1-.21-.07-.33.12-.49.25-1,.36-1.48a.24.24,0,0,1,.28-.22c.69,0,1.37,0,2.05,0,.1,0,.23.06.27-.12a8.63,8.63,0,0,0,.36-1.82A1.28,1.28,0,0,0,35.56,6.87Zm-.8,1.41c0,.21-.11.41-.15.62s-.1.34-.32.26c-.28.07-.31-.05-.24-.27s.15-.5.23-.75a.28.28,0,0,1,.36-.21C34.84,8,34.78,8.15,34.76,8.28Z"/></g></g></svg>