<svg xmlns="http://www.w3.org/2000/svg" width="70.29" height="20" viewBox="0 0 70.29 20"><defs><style>.cls-1{fill:#e30520;}.cls-2{fill:#1d1d1b;}</style></defs><g id="Layer_2" data-name="Layer 2"><g id="Design"><path class="cls-1" d="M10,13.39A3.45,3.45,0,1,0,6.55,9.94,3.45,3.45,0,0,0,10,13.39Zm0,3.25A6.64,6.64,0,1,0,3.36,10,6.64,6.64,0,0,0,10,16.64ZM0,10A10,10,0,1,1,10,20,10,10,0,0,1,0,10Z"/><polygon class="cls-2" points="23.24 5.2 30.85 5.2 30.85 7.12 28.23 7.12 28.23 14.81 25.91 14.81 25.91 7.13 23.24 7.13 23.24 5.2 23.24 5.2"/><path class="cls-2" d="M42.32,7.13H40.18V9.05H42.1c.66,0,1.18-.31,1.18-1a.86.86,0,0,0-1-1ZM38,5.2h4.52C45.05,5.2,45.4,7,45.4,8A2.64,2.64,0,0,1,44,10.24a1.83,1.83,0,0,1,1.12,1.69v1.8a1.51,1.51,0,0,0,.52,1.08H43.82c-.88-.1-.86-.79-.86-1.19V12.08c0-.38-.13-.8-.92-.82H40.18v3.55H38V5.2Z"/><polygon class="cls-2" points="55.22 5.2 55.22 14.81 62.15 14.81 62.15 12.84 57.48 12.84 57.48 10.69 61.47 10.69 61.47 8.87 57.48 8.87 57.48 7.13 62.15 7.13 62.15 5.2 55.22 5.2 55.22 5.2"/><polygon class="cls-2" points="62.48 7.13 65.22 7.13 65.22 14.81 67.5 14.81 67.5 7.13 70.29 7.13 70.29 5.2 62.48 5.2 62.48 7.13 62.48 7.13"/><path class="cls-2" d="M33.26,8.59l-.82,2.48h1.68l-.86-2.48ZM32,5.19h2.47l3.36,9.62H35.41l-.7-2H31.87l-.65,2H28.85L32,5.19Z"/><path class="cls-2" d="M54.42,9.44H50.29v1.87h2a1.62,1.62,0,0,1-.4,1.31,2,2,0,0,1-1.45.6,2.14,2.14,0,0,1-1.48-.52,4,4,0,0,1-1.08-2.84c0-.91.37-3.18,2.59-3.27a1.92,1.92,0,0,1,1.9,1.72h2.08a4,4,0,0,0-4-3.5,4.52,4.52,0,0,0-3.28,1.33A5.27,5.27,0,0,0,45.72,10a5.54,5.54,0,0,0,1.36,3.88A3.77,3.77,0,0,0,50,15.14a4.46,4.46,0,0,0,2.57-.87l.31.54h1.56V9.44Z"/></g></g></svg>