<svg xmlns="http://www.w3.org/2000/svg" width="79.86" height="20" viewBox="0 0 79.86 20"><defs><style>.cls-1{fill:#86c771;}.cls-2{fill:#f8cf1f;}.cls-3{fill:#c6d534;}.cls-4{fill:#ba83b9;}.cls-5{fill:#772b7e;}</style></defs><g id="Layer_2" data-name="Layer 2"><g id="Design"><path class="cls-1" d="M10.33,8.14,9.68,5.68a.24.24,0,0,0-.17-.17L7.05,4.86a.24.24,0,0,0-.23.06L5.17,6.57,8.62,10l1.65-1.65a.24.24,0,0,0,.06-.23"/><path class="cls-2" d="M0,11.9l.65,2.46a.26.26,0,0,0,.17.17l2.46.65a.24.24,0,0,0,.23-.06l1.65-1.65L1.72,10,.07,11.67A.24.24,0,0,0,0,11.9"/><path class="cls-3" d="M3.29,4.86.83,5.51a.24.24,0,0,0-.17.17L0,8.14a.24.24,0,0,0,.06.23L1.72,10,5.17,6.57,3.52,4.92a.22.22,0,0,0-.23-.06"/><path class="cls-4" d="M10.24,11.64,8.62,10,5.17,13.47,6.8,15.09a.27.27,0,0,0,.28.08l2.4-.63a.31.31,0,0,0,.21-.22l.63-2.39a.29.29,0,0,0-.08-.29"/><rect class="cls-5" x="2.73" y="7.58" width="4.88" height="4.88" transform="translate(-5.57 6.59) rotate(-45)"/><path class="cls-5" d="M15.44,15.16l-2.89-8.7a.21.21,0,0,0-.19-.13h-.68a.28.28,0,0,1-.28-.28V5a.28.28,0,0,1,.28-.28h4.4a.28.28,0,0,1,.28.28V6.05a.28.28,0,0,1-.28.28h-.55a.2.2,0,0,0-.19.27l1.48,4.46a.21.21,0,0,0,.38,0c.64-1.68,2.38-6.17,2.38-6.17a.27.27,0,0,1,.26-.18h1.3a.29.29,0,0,1,.25.19l2.23,6.16a.21.21,0,0,0,.38,0c.05-.16,1.5-4.47,1.5-4.47a.2.2,0,0,0-.19-.26h-.63a.29.29,0,0,1-.28-.28V5a.29.29,0,0,1,.28-.28h4a.28.28,0,0,1,.27.36L28.6,6.13a.28.28,0,0,1-.27.2h-.64a.19.19,0,0,0-.19.13l-3,8.7a.27.27,0,0,1-.26.19H22.71a.28.28,0,0,1-.27-.18L20.15,8.83a.21.21,0,0,0-.38,0l-2.46,6.35a.28.28,0,0,1-.26.18H15.71a.28.28,0,0,1-.27-.19"/><path class="cls-5" d="M38.22,13.76c-.59,0-.88-.25-.88-.91V8A3.52,3.52,0,0,0,33.59,4.6c-3.08,0-4.19,1.46-4.32,3.1a.28.28,0,0,0,.28.3h1.52a.3.3,0,0,0,.28-.26A1.66,1.66,0,0,1,34.66,8v1h-.55a7.7,7.7,0,0,0-4.08.8,3.09,3.09,0,0,0-1.32,2.75,2.86,2.86,0,0,0,.91,2.17,3,3,0,0,0,2.23.82,3.76,3.76,0,0,0,1.59-.36,5.28,5.28,0,0,0,1.34-.87.21.21,0,0,1,.32.05,1.76,1.76,0,0,0,1.8,1c.81,0,1.21-.76,1.56-1.21a.29.29,0,0,0-.24-.44M34.66,13c0,.06-.1.15-.15.19a3.6,3.6,0,0,1-.82.52,2,2,0,0,1-.84.16,1.52,1.52,0,0,1-1.11-.45,1.61,1.61,0,0,1-.41-1.13A1.49,1.49,0,0,1,32,10.93a4.1,4.1,0,0,1,2.17-.46h.45Z"/><path class="cls-5" d="M54.27,0a3.1,3.1,0,0,0-2.61,1.11,4.23,4.23,0,0,0-.91,3v.39a.2.2,0,0,1-.2.2h-4.1a.29.29,0,0,0-.28.28V6a.29.29,0,0,0,.28.29h.22a.2.2,0,0,1,.19.27s-1.49,3.47-2.09,4.85a.2.2,0,0,1-.37,0L42.29,6.61a.2.2,0,0,1,.18-.28h.67a.29.29,0,0,0,.28-.28V5a.29.29,0,0,0-.28-.28H37.73a.28.28,0,0,0-.25.41c.15.27.48.88.57,1.06a.29.29,0,0,0,.24.15h.81a.21.21,0,0,1,.18.11l4,8.55a.29.29,0,0,1,0,.2c0,.09-.74,1.53-.74,1.53-.39.82-.82,1.53-1.65,1.53a1.92,1.92,0,0,1-1.16-.56.29.29,0,0,0-.37,0l-.79.82a.29.29,0,0,0,0,.38A3.34,3.34,0,0,0,40.8,20a3.1,3.1,0,0,0,3-2.06L49,6.44a.21.21,0,0,1,.18-.11h1.29a.2.2,0,0,1,.2.2v7a.25.25,0,0,1-.05.16l-.95,1.19a.28.28,0,0,0,.22.45h4.42a.27.27,0,0,0,.28-.28V14a.28.28,0,0,0-.28-.28h-.76a.2.2,0,0,1-.2-.2v-7a.2.2,0,0,1,.2-.2H55a.28.28,0,0,0,.22-.11L56,5.16a.28.28,0,0,0-.23-.45H53.56a.2.2,0,0,1-.2-.2V3c0-.76.38-1.51,1.2-1.51s1.06.76,1.1,1.36a.28.28,0,0,0,.28.27h1.3a.28.28,0,0,0,.26-.28C57.5.83,56.26,0,54.27,0"/><path class="cls-5" d="M79.67,4.71a2.32,2.32,0,0,0-.8-.11,2.71,2.71,0,0,0-2.56,1.47A.2.2,0,0,1,76,5.94V5a.29.29,0,0,0-.28-.28h-2a.28.28,0,0,0-.21.1L72.6,5.87a.28.28,0,0,0,.22.46h.25a.2.2,0,0,1,.21.2v7a.37.37,0,0,1,0,.16c-.2.24-.7.88-1,1.19a.28.28,0,0,0,.21.45h4.35a.27.27,0,0,0,.28-.28V14a.28.28,0,0,0-.28-.28h-.69a.2.2,0,0,1-.2-.2V8.3a.5.5,0,0,1,0-.13,3,3,0,0,1,2.33-1.51,4,4,0,0,1,1.27.19c.15,0,.28-.12.28-.28V5a.34.34,0,0,0-.19-.27"/><path class="cls-5" d="M71.2,13.75h-.69a.2.2,0,0,1-.2-.2V5A.28.28,0,0,0,70,4.71H68a.3.3,0,0,0-.23.11c-.1.14-.62.79-.83,1a.28.28,0,0,0,.21.46h.27a.2.2,0,0,1,.19.2v7a.24.24,0,0,1,0,.15c-.22.29-.7.89-.94,1.19a.28.28,0,0,0,.21.46h3.53a.24.24,0,0,0,.19-.08l.83-1a.28.28,0,0,0-.2-.48"/><path class="cls-5" d="M65.52,13.76c-.59,0-.88-.25-.88-.91V8A3.52,3.52,0,0,0,60.89,4.6c-3.08,0-4.19,1.46-4.31,3.1a.27.27,0,0,0,.28.3h1.51a.28.28,0,0,0,.28-.26A1.66,1.66,0,0,1,62,8v1h-.55a7.72,7.72,0,0,0-4.08.8A3.11,3.11,0,0,0,56,12.6a2.89,2.89,0,0,0,.9,2.17,3,3,0,0,0,2.23.82,3.8,3.8,0,0,0,1.6-.36,5.46,5.46,0,0,0,1.34-.87.2.2,0,0,1,.31.05,1.76,1.76,0,0,0,1.8,1c.82,0,1.21-.76,1.56-1.21a.29.29,0,0,0-.24-.44M62,13c0,.06-.1.15-.15.19a3.35,3.35,0,0,1-.81.52,2,2,0,0,1-.84.16,1.49,1.49,0,0,1-1.11-.45,1.61,1.61,0,0,1-.42-1.13,1.49,1.49,0,0,1,.71-1.36,4.12,4.12,0,0,1,2.17-.46H62Z"/><circle class="cls-5" cx="69.02" cy="1.33" r="1.33"/></g></g></svg>