<?xml version="1.0" encoding="UTF-8"?>
<svg width="31px" height="31px" viewBox="0 0 31 31" version="1.1" xmlns="http://www.w3.org/2000/svg" xmlns:xlink="http://www.w3.org/1999/xlink">
    <!-- Generator: Sketch 59 (86127) - https://sketch.com -->
    <title>bitoff</title>
    <desc>Created with Sketch.</desc>
    <g id="Page-1" stroke="none" stroke-width="1" fill="none" fill-rule="evenodd">
        <g id="Order-as-Shopper---Chat" transform="translate(-259.000000, -614.000000)" fill="#0068C5" fill-rule="nonzero">
            <g id="Group-12" transform="translate(259.062619, 614.298947)">
                <path d="M15,-2.84217094e-14 C23.2842712,-2.84217094e-14 30,6.71572875 30,15 C30,23.2842712 23.2842712,30 15,30 C6.71572875,30 0,23.2842712 0,15 C0,6.71572875 6.71572875,-2.84217094e-14 15,-2.84217094e-14 Z M15,1.5 C7.54415588,1.5 1.5,7.54415588 1.5,15 C1.5,22.4558441 7.54415588,28.5 15,28.5 C22.4558441,28.5 28.5,22.4558441 28.5,15 C28.5,7.54415588 22.4558441,1.5 15,1.5 Z M11.8112599,8.6169337 L11.8112599,17.647818 C11.8112599,17.9508647 12.0496008,18.1892056 12.3526475,18.1892056 L18.1887401,18.1892056 L18.1887401,12.3526475 C18.1887401,12.0496008 17.9503992,11.8112599 17.6473525,11.8112599 L14.9944139,11.8112599 L14.9944139,8.6169337 L18.1887401,8.6169337 C19.06576,8.6169337 19.8673674,8.974445 20.4408751,9.54841822 C21.025555,10.1330982 21.3830663,10.9235333 21.3830663,11.8112599 L21.3830663,21.3830663 L11.8112599,21.3830663 C10.0460479,21.3830663 8.6169337,19.9539521 8.6169337,18.1892056 L8.6169337,8.6169337 L11.8112599,8.6169337 Z" id="bitoff"></path>
            </g>
        </g>
    </g>
</svg>