<svg xmlns="http://www.w3.org/2000/svg" width="66.37" height="20" viewBox="0 0 66.37 20"><defs><style>.cls-1{fill:#f90;}.cls-2{fill:#221f1f;}</style></defs><g id="Layer_2" data-name="Layer 2"><g id="Design"><g id="Page-1"><g id="Product"><g id="amazon-com-copy-2"><path id="path8" class="cls-1" d="M41.17,15.64A25.27,25.27,0,0,1,26.91,20,25.82,25.82,0,0,1,9.49,13.35c-.36-.32,0-.77.4-.51a35.11,35.11,0,0,0,17.43,4.62,34.72,34.72,0,0,0,13.29-2.72c.66-.28,1.2.43.56.9"/><path id="path10" class="cls-1" d="M42.78,13.81c-.5-.63-3.26-.3-4.5-.15-.38,0-.44-.29-.1-.52,2.2-1.56,5.82-1.11,6.24-.59s-.11,4.15-2.18,5.88c-.32.27-.62.13-.48-.23.47-1.16,1.51-3.76,1-4.39"/><path id="path12" class="cls-2" d="M38.36,2.18V.68a.38.38,0,0,1,.38-.39h6.75a.38.38,0,0,1,.39.39V2a2.07,2.07,0,0,1-.5.94l-3.5,5a7.42,7.42,0,0,1,3.85.83.7.7,0,0,1,.36.58v1.61c0,.22-.25.48-.5.35a7.77,7.77,0,0,0-7.13,0c-.24.12-.48-.13-.48-.35V9.41a1.82,1.82,0,0,1,.25-1l4.05-5.81H38.75a.38.38,0,0,1-.39-.38"/><path id="path14" class="cls-2" d="M13.73,11.59H11.68a.39.39,0,0,1-.37-.35V.7a.39.39,0,0,1,.4-.38h1.91A.41.41,0,0,1,14,.68V2.05h0A2.71,2.71,0,0,1,16.74.1,2.7,2.7,0,0,1,19.4,2.05,2.92,2.92,0,0,1,22.24.1a3,3,0,0,1,2.38,1.15c.65.89.52,2.18.52,3.31v6.65a.38.38,0,0,1-.39.38h-2a.38.38,0,0,1-.37-.38V5.62a12.89,12.89,0,0,0-.06-2,1.07,1.07,0,0,0-1.21-.91,1.36,1.36,0,0,0-1.23.87,6.37,6.37,0,0,0-.19,2v5.59a.38.38,0,0,1-.39.38h-2a.38.38,0,0,1-.37-.38V5.62c0-1.17.2-2.9-1.26-2.9s-1.42,1.69-1.42,2.9v5.59a.39.39,0,0,1-.4.38"/><path id="path16" class="cls-2" d="M51.7.1c3,0,4.69,2.62,4.69,6s-1.82,5.76-4.69,5.76S47.07,9.2,47.07,5.93,48.72.1,51.7.1m0,2.15c-1.51,0-1.6,2.07-1.6,3.35s0,4,1.59,4,1.66-2.22,1.66-3.57a9.74,9.74,0,0,0-.3-2.8,1.29,1.29,0,0,0-1.35-1"/><path id="path18" class="cls-2" d="M60.35,11.59H58.3a.39.39,0,0,1-.37-.38V.67a.39.39,0,0,1,.39-.35h1.91a.38.38,0,0,1,.36.3V2.23h0A2.8,2.8,0,0,1,63.43.1a2.7,2.7,0,0,1,2.4,1.24,6.71,6.71,0,0,1,.54,3.29v6.63a.4.4,0,0,1-.4.33H63.91a.38.38,0,0,1-.36-.33V5.54c0-1.16.13-2.84-1.29-2.84a1.34,1.34,0,0,0-1.19.84,4.78,4.78,0,0,0-.32,2v5.67a.39.39,0,0,1-.4.38"/><path id="Shape" class="cls-2" d="M36.64,9.66a2.79,2.79,0,0,1-.78-1.9V4.56C35.86,3.2,36,2,35,1a4.71,4.71,0,0,0-3.1-1c-1.95,0-4.13.73-4.59,3.14a.36.36,0,0,0,.31.43l2,.22a.44.44,0,0,0,.36-.38,1.56,1.56,0,0,1,1.65-1.23,1.36,1.36,0,0,1,1.15.53A2.61,2.61,0,0,1,33,4.2v.27a14,14,0,0,0-3.86.71,3.48,3.48,0,0,0-2.19,3.36A2.91,2.91,0,0,0,30,11.74a4.08,4.08,0,0,0,3.39-1.5,4.75,4.75,0,0,0,1.18,1.37.41.41,0,0,0,.48,0h0c.41-.36,1.16-1,1.58-1.36A.39.39,0,0,0,36.64,9.66Zm-4-.92a1.69,1.69,0,0,1-1.43.93c-.78,0-1.25-.6-1.25-1.49,0-1.75,1.57-2.07,3.06-2.07v.45A4.06,4.06,0,0,1,32.6,8.74Z"/><path id="Shape-2" data-name="Shape" class="cls-2" d="M9.71,9.66a2.78,2.78,0,0,1-.77-1.9V4.56C8.94,3.2,9,2,8,1A4.68,4.68,0,0,0,4.94,0C3,0,.8.73.34,3.14a.36.36,0,0,0,.31.43l2,.22A.44.44,0,0,0,3,3.41,1.56,1.56,0,0,1,4.65,2.18a1.36,1.36,0,0,1,1.15.53A2.61,2.61,0,0,1,6.05,4.2v.27a14,14,0,0,0-3.86.71A3.48,3.48,0,0,0,0,8.54a2.92,2.92,0,0,0,3.07,3.2,4.07,4.07,0,0,0,3.39-1.5,5.09,5.09,0,0,0,1.18,1.37.41.41,0,0,0,.48,0h0c.41-.36,1.15-1,1.57-1.36A.39.39,0,0,0,9.71,9.66Zm-4-.92a1.69,1.69,0,0,1-1.42.93C3.46,9.67,3,9.07,3,8.18,3,6.43,4.57,6.11,6.05,6.11v.45A4.06,4.06,0,0,1,5.67,8.74Z"/></g></g></g></g></g></svg>