<svg xmlns="http://www.w3.org/2000/svg" width="49.91" height="20" viewBox="0 0 49.91 20"><defs><style>.cls-1{fill:#e53238;}.cls-2{fill:#0064d2;}.cls-3{fill:#f5af02;}.cls-4{fill:#86b817;}</style></defs><g id="Layer_2" data-name="Layer 2"><g id="Design"><path id="e" class="cls-1" d="M6.45,4.36c-3.52,0-6.45,1.5-6.45,6,0,3.57,2,5.82,6.55,5.82,5.38,0,5.72-3.54,5.72-3.54H9.66s-.55,1.91-3.27,1.91A3.57,3.57,0,0,1,2.58,11h10V9.64C12.55,7.56,11.23,4.36,6.45,4.36ZM6.36,6.05c2.11,0,3.55,1.29,3.55,3.22H2.64C2.64,7.22,4.51,6.05,6.36,6.05Z"/><path id="b" class="cls-2" d="M12.54,0V13.92c0,.79,0,1.9,0,1.9H15s.09-.8.09-1.53c0,0,1.23,1.93,4.57,1.93a5.65,5.65,0,0,0,5.91-5.95,5.61,5.61,0,0,0-5.9-5.87c-3.47,0-4.55,1.87-4.55,1.87V0ZM19,6.12a3.85,3.85,0,0,1,3.91,4.15A4,4,0,0,1,19,14.49a3.89,3.89,0,0,1-3.92-4.19A3.87,3.87,0,0,1,19,6.12Z"/><path id="a" class="cls-3" d="M31.72,4.36c-5.29,0-5.63,2.9-5.63,3.37h2.63S28.86,6,31.54,6c1.74,0,3.09.8,3.09,2.33v.55H31.54c-4.1,0-6.27,1.2-6.27,3.64s2,3.7,4.71,3.7c3.69,0,4.88-2,4.88-2,0,.81.07,1.61.07,1.61h2.34s-.09-1-.09-1.63V8.71C37.18,5.12,34.28,4.36,31.72,4.36Zm2.91,6.19v.72c0,1-.58,3.31-4,3.31-1.88,0-2.69-.94-2.69-2C27.91,10.56,30.63,10.55,34.63,10.55Z"/><path id="y" class="cls-4" d="M35.76,4.82h3L43,13.35l4.25-8.53h2.68L42.18,20H39.36l2.23-4.23Z"/></g></g></svg>