<svg xmlns="http://www.w3.org/2000/svg" width="40.53" height="20" viewBox="0 0 40.53 20"><defs><style>.cls-1{fill:#f45800;}</style></defs><g id="Layer_2" data-name="Layer 2"><g id="Design"><path class="cls-1" d="M.37.61C.36.4.44.23.72.23S3.86.32,5.78.32A45.43,45.43,0,0,0,11.39,0a.44.44,0,0,1,.46.47,6.14,6.14,0,0,0-.18,1c0,.47.11,1,.11,1.38a.54.54,0,0,1-.54.56c-.19,0-.31-.07-.32-.43,0-.67.47-1.64-4.36-1.64C4.1,1.35,4,1.63,4,2.41s0,3.38,0,3.78.12.52.44.52H8A1.36,1.36,0,0,0,9.48,5.37c0-.51.17-.53.42-.53s.49.2.45.69a16.4,16.4,0,0,0-.14,1.68c0,.7.14,1.38.14,1.88a.4.4,0,0,1-.8.08c-.13-.54-.32-1.45-1.87-1.45H4.55c-.34,0-.51.19-.51.75v4c0,.69.21,1.43,1.62,1.43s3.95.15,5.12-.76a2.89,2.89,0,0,0,.82-1.92c.08-.43,1-.42,1,.57,0,.47-.48,1.46-.48,2.09s.13,1.25-.37,1.25a7.5,7.5,0,0,0-2.07-.21L.47,15C.08,15,0,14.86,0,14.62a.41.41,0,0,1,.47-.43,1.57,1.57,0,0,0,1.74-1.76V3.13c0-1-.21-1.92-1.4-2C.35,1.05.38.84.37.61Z"/><path class="cls-1" d="M13.27,6.23c0-.3.16-.42.52-.54.69-.27,1.47-1,2.13-2.84.21-.57.94-.42.85.16a17.11,17.11,0,0,0-.23,2.27h2.92c.29,0,.34.36.34.64s-.08.51-.33.51H16.54v5c0,1.82.63,2.24,1.46,2.24a2.17,2.17,0,0,0,1.24-.44c.24-.18.78.25.51.6a3.52,3.52,0,0,1-2.59,1.39c-1.37,0-2.35-1-2.33-2.71s.09-4.53.09-4.93a1.15,1.15,0,0,0-1.09-.94C13.36,6.67,13.27,6.42,13.27,6.23Z"/><path class="cls-1" d="M25.09,5a12.26,12.26,0,0,1,2,.33c.31,0,.43-.39.77-.39s.43.39.34.73a7.91,7.91,0,0,0-.11,2,.47.47,0,0,1-.48.49c-.24,0-.33-.1-.43-.57A2,2,0,0,0,25,6,1.45,1.45,0,0,0,23.4,7.28c0,.52.28,1,1.53,1.55s3.75,1.19,3.75,3.52-2.25,2.88-3.53,2.88c-1.07,0-2.08-.32-2.52-.32s-.61.37-.89.37a.47.47,0,0,1-.38-.65,2.66,2.66,0,0,0,.26-.92A8.09,8.09,0,0,1,21.54,12c.11-.64,1-.73,1-.11A2.29,2.29,0,0,0,25,14.25c1.82,0,2-1.26,2-1.62s-.09-1.08-2.27-1.94-3-1.67-3-3S23,5,25.09,5Z"/><path class="cls-1" d="M29.31,5.58c0-.22,0-.32.25-.32s1.52,0,2.19,0,1.91,0,2.16,0,.13.23.13.38,0,.4-.3.4-.92.11-.92.64a3,3,0,0,0,.35,1.26c.23.63,1.9,4.46,1.9,4.46S36.37,9.71,36.76,9a5.62,5.62,0,0,0,.64-2.12c0-.42-.43-.7-.8-.77s-.54-.05-.54-.48c0-.23,0-.35.22-.35s1.27.07,2.07.07,1.74,0,2,0,.17.2.17.38,0,.34-.23.37-1.15,0-2.12,2.06-2.9,6.24-4.3,9c-.72,1.42-2.09,3-3.51,3a1,1,0,0,1-1-.95c0-.33.18-.85,1-.85.56,0,.71.27,1,.27.56,0,2-1.36,2.39-3.81A9.48,9.48,0,0,0,33,12.09c-.34-.92-1.35-3.6-2.09-5.19A1.78,1.78,0,0,0,29.55,6C29.35,6,29.31,5.92,29.31,5.58Z"/></g></g></svg>