<svg xmlns="http://www.w3.org/2000/svg" width="69.69" height="10.53" viewBox="0 0 69.69 10.53"><defs><style>.cls-1{fill:#800033;}</style></defs><g id="Layer_2" data-name="Layer 2"><g id="Design"><g id="g10"><path id="path364" class="cls-1" d="M0,.26H4.81V3.53h0L8.51.26h5.4l-4.43,4,5.12,5.5H8.51L4.84,5.88h0V9.77H0Z"/><path id="path370" class="cls-1" d="M21.56,8.12c2.14,0,2-2.38,2-3.17s0-3-2-3-2,2.19-2,3-.15,3.17,2,3.17m0-8.12c5.46,0,7,1.15,7,5.05s-1.49,5.05-7,5.05-6.95-1.15-6.95-5,1.48-5,7-5"/><path id="path376" class="cls-1" d="M38.88,6.2V9.84h4.94V.33H38.88V3.6H35.34V.33H30.4V9.84h4.94V6.2Z"/><path id="path382" class="cls-1" d="M46.16.33h5.06V7.57l4.57,0a1.13,1.13,0,0,0,.85-.49V9.84H46.16Z"/><path id="path396" class="cls-1" d="M68.43,3.48a4.56,4.56,0,0,0-2.91-1.14c-.94,0-1.8.31-1.8.89s.64.64,2.89,1.11c1.85.38,3.08,1.33,3.08,3.09,0,2-3.3,3.1-6.25,3.1a12,12,0,0,1-5.09-1V6.86a6.78,6.78,0,0,0,4.36,1.4c.84,0,1.25-.12,1.25-.79,0-.41-.53-.78-2.11-1.07-3-.55-4-1.41-4-2.87,0-2.11,2.62-3.36,5.84-3.36a11,11,0,0,1,4.74.71v2.6Z"/><path id="path402" class="cls-1" d="M53.83,4.21l.34-.61A1.85,1.85,0,0,1,53.35,1a1.85,1.85,0,0,1,3,.1,1.62,1.62,0,0,1-.28,2.22,14.61,14.61,0,0,1-2.24.87"/></g></g></g></svg>