<svg xmlns="http://www.w3.org/2000/svg" width="75.38" height="20" viewBox="0 0 75.38 20"><defs><style>.cls-1{fill:#e70000;}</style></defs><g id="Layer_2" data-name="Layer 2"><g id="Design"><path id="path2215" class="cls-1" d="M2.56,15.67,3,14.28C3.44,13,4,11.1,4.05,11s-.36-.29-.81-.62L1.21,9,0,8.08l2.52,0L5,8l.58-1.77.75-2.32c.09-.29.18-.55.19-.57s.08.09.12.24S7.07,4.82,7.45,6l.67,2.08h2.51l2.37,0A6.65,6.65,0,0,1,11.92,9,28.52,28.52,0,0,0,9.1,11.07s1.4,4.3,1.49,4.58l0,.12-.12-.08c-.1-.07-1.4-1-1.91-1.39-.87-.64-2-1.42-2-1.42s-1.94,1.34-3.27,2.33l-.64.46-.14.1Z"/><path id="path2211" d="M61.43,19.93l.21-.53c.09-.25.33-.83.52-1.31.37-.88.84-2.05,1-2.35l.06-.18-.26-.64c-.43-1.05-1-2.37-1.11-2.78-.08-.21-.33-.83-.55-1.37-.6-1.48-1.08-2.68-1.29-3.23-.1-.26-.35-.88-.55-1.37l-.68-1.69-.35-.86s.11,0,.35,0l.38,0,.15.41c.09.22.45,1.13.81,2s.76,1.9.9,2.25l.53,1.31.39,1c.06.16.25.66.43,1.09s.38.92.44,1.07c.19.52.76,1.89.78,1.88a2.73,2.73,0,0,0,.21-.46c.21-.5,1-2.5,1.38-3.37l.5-1.24c.33-.8,1-2.5,1.34-3.3.12-.3.39-1,.6-1.47s.4-1,.42-1,.06-.11.43-.13.39,0,.37.05-.13.31-.25.62c-.26.62-.59,1.43-1,2.4-.14.36-.45,1.11-.68,1.67-.91,2.22-1.13,2.76-1.27,3.13-.08.21-.34.84-.57,1.39S64.62,13.9,64.6,14s-.21.53-.43,1-.41,1-.42,1-.21.52-.42,1-.45,1.09-.53,1.3-.27.66-.41,1l-.26.61h-.36C61.44,20,61.41,20,61.43,19.93Zm9.78-4.19a3.62,3.62,0,0,1-1.16-.42,4.63,4.63,0,0,1-1-.87A4.52,4.52,0,0,1,68.09,12l0-.32.29,0h.28l0,.21a4.36,4.36,0,0,0,.9,2.22,3.11,3.11,0,0,0,2.25,1.08A3.21,3.21,0,0,0,73,14.93a3,3,0,0,0,1.75-2.52,2.31,2.31,0,0,0-.25-1.26,4.61,4.61,0,0,0-2.66-1.92c-1.49-.56-2.17-1-2.54-1.8A3,3,0,0,1,69,6.16a2.86,2.86,0,0,1,1.55-2.58,2.56,2.56,0,0,1,1.31-.32,2.9,2.9,0,0,1,2.19.9,2.67,2.67,0,0,1,.83,1.67l0,.25h-.59l0-.28a2.12,2.12,0,0,0-.69-1.22,2.13,2.13,0,0,0-1.36-.69,2.23,2.23,0,0,0-2.52,1.66A3,3,0,0,0,69.8,7c.27.71.77,1.09,2,1.57a6,6,0,0,1,3.09,2.07,2.72,2.72,0,0,1,.45,1.63,3.37,3.37,0,0,1-.64,2,3.26,3.26,0,0,1-.87.87,2.56,2.56,0,0,1-1,.47A3.49,3.49,0,0,1,71.21,15.74Zm-55.28,0-.33,0V3.58h.69v1l0,1,.17-.25a5.16,5.16,0,0,1,1.76-1.49,5.24,5.24,0,0,1,1.55-.42A4.71,4.71,0,0,1,23,4.23a4.86,4.86,0,0,1,1.36,1.63l.19.36L24.65,6A3.64,3.64,0,0,1,25,5.46a4.58,4.58,0,0,1,2.27-1.85,4.12,4.12,0,0,1,1.63-.28,3.87,3.87,0,0,1,1.49.23,3.43,3.43,0,0,1,1.07.52,4.64,4.64,0,0,1,1.85,2.48c.25.75.26.93.26,5.25v3.93H33.2l-.35,0V7.48L32.75,7a4,4,0,0,0-2.27-2.73A3,3,0,0,0,29.1,4a3.6,3.6,0,0,0-2,.38A4.16,4.16,0,0,0,25,6.88l-.1.3v8.54h-.64V11.51c0-4.82,0-4.45-.44-5.36A3.87,3.87,0,0,0,22,4.33,3.32,3.32,0,0,0,20.41,4a3.6,3.6,0,0,0-2.26.59,3.4,3.4,0,0,0-1,.91,3.45,3.45,0,0,0-.67,1.25l-.14.42,0,4.31,0,4.3Zm23.76-.06a6,6,0,0,1-2.67-.9,6.18,6.18,0,0,1-2.64-3.42,5.34,5.34,0,0,1-.26-1.86,5.2,5.2,0,0,1,.28-1.93,6.28,6.28,0,0,1,3.89-3.95,6.14,6.14,0,0,1,4.06,0,6.32,6.32,0,0,1,3.28,2.63,1.23,1.23,0,0,0,.22.33,9,9,0,0,0,0-1.48V3.6h.68V15.72h-.68V12.36l-.15.25A6.33,6.33,0,0,1,43.19,15a6,6,0,0,1-2.28.66A5,5,0,0,1,39.69,15.67Zm1.56-.7a5.66,5.66,0,0,0,3.36-2,5.31,5.31,0,0,0,.84-1.4,5.4,5.4,0,0,0,0-4.23A5.6,5.6,0,0,0,43.62,5a6.36,6.36,0,0,0-2.48-1,7.39,7.39,0,0,0-1.76,0A6.25,6.25,0,0,0,37,5.07a6.46,6.46,0,0,0-1.18,1.21A7.28,7.28,0,0,0,35,7.81a5.57,5.57,0,0,0,.09,3.61,5.68,5.68,0,0,0,2,2.57,6.36,6.36,0,0,0,2.29,1A7.47,7.47,0,0,0,41.25,15Zm11.26.7a6,6,0,0,1-3.73-1.79,5.84,5.84,0,0,1-1.7-3.12A5.21,5.21,0,0,1,47,9.49,5.85,5.85,0,0,1,48,6a7.88,7.88,0,0,1,.66-.8A6.15,6.15,0,0,1,52,3.38a7.38,7.38,0,0,1,2.25,0,6.09,6.09,0,0,1,3.38,1.79,7.09,7.09,0,0,1,.67.79A5.2,5.2,0,0,1,58.87,7a1.2,1.2,0,0,1-.37,0l-.33,0L58,6.81a5.88,5.88,0,0,0-.86-1.18A5.89,5.89,0,0,0,54.12,4a6.72,6.72,0,0,0-1.9,0,5.79,5.79,0,0,0-3.51,2.18,6.06,6.06,0,0,0-1,2.37,7.24,7.24,0,0,0,0,1.86,6.1,6.1,0,0,0,.93,2.24A6.67,6.67,0,0,0,49.87,14a7.85,7.85,0,0,0,1.61.82,5.69,5.69,0,0,0,3.32,0A7.2,7.2,0,0,0,56.35,14,6.11,6.11,0,0,0,58,12.16l.13-.25h.77l-.22.41a5.62,5.62,0,0,1-1.16,1.56,5.92,5.92,0,0,1-3,1.67A6.4,6.4,0,0,1,52.51,15.67ZM69.29,2.31s.07-.21.15-.45l.14-.44-.26-.18A3.43,3.43,0,0,1,68.94,1l-.12-.1h1l.11-.39L70,0s.09.14.18.39l.15.45.46,0,.46,0L71.1,1a3.38,3.38,0,0,1-.36.27l-.2.14.14.43a4.68,4.68,0,0,1,.15.46l-.39-.26c-.28-.19-.4-.25-.44-.22l-.39.26A3.86,3.86,0,0,1,69.29,2.31Z"/></g></g></svg>