<svg xmlns="http://www.w3.org/2000/svg" width="81.73" height="20" viewBox="0 0 81.73 20"><defs><style>.cls-1{fill:#0068c5;}.cls-2{fill-rule:evenodd;}</style></defs><g id="Layer_2" data-name="Layer 2"><g id="Design"><path d="M5.24,1.87a4.34,4.34,0,0,1,1-1,4.65,4.65,0,0,1,6.85,1.63s0,.05,0,.08a3.89,3.89,0,0,1,.44,1.28,4,4,0,0,1,.07,1,.59.59,0,0,1,0,.13c0,.27,0,.54,0,.81v.64a.16.16,0,0,1,0,.1s0,.1,0,.16a.37.37,0,0,0,.05.25.9.9,0,0,1,.38.74.92.92,0,1,1-1.84,0,.89.89,0,0,1,.19-.55h0l.05-.07h0s0,0,0,0h0a.4.4,0,0,0,.11-.31c0-.51,0,.09,0-.42,0-.19,0-.19-.22-.19H5.88V4.91h6.61c.07,0,.09,0,.1-.11a.76.76,0,0,1,0-.3,3.56,3.56,0,0,0-.49-1.66L12,2.71a.06.06,0,0,1,0-.07h0A5.6,5.6,0,0,0,11.41,2,3.48,3.48,0,0,0,10,1.19a3.6,3.6,0,0,0-2.95.36,5,5,0,0,0-.74.56,2.14,2.14,0,0,0-.55.74,4.25,4.25,0,0,0-.38,1l0,.14a3.92,3.92,0,0,0-.07.65v2c0,.09,0,.18,0,.27a.93.93,0,0,1,.42.77.92.92,0,1,1-1.84,0A.9.9,0,0,1,4.23,7a.3.3,0,0,0,0-.19V6.25c0-.16,0-.16-.16-.16H1.43c-.3,0-.41.12-.41.41C1,7,1,7.49,1,8a.29.29,0,0,1,0,.2,6,6,0,0,1,0,.74.23.23,0,0,1,0,.16.57.57,0,0,1,0,.26H1a1,1,0,0,1,0,.48A.53.53,0,0,1,1,10v6.2a1.94,1.94,0,0,0,0,.24c0,.17.27.2.45.2H5.56c.42,0,.83,0,1.25,0s1.08,0,1.63,0c.71,0,1.43,0,2.14,0h5.84a.4.4,0,0,0,.44-.32c0-.07,0-.15,0-.22V6.59a1.08,1.08,0,0,0,0-.18.34.34,0,0,0-.28-.31H14.21a.1.1,0,0,1-.08,0V4.93l.09,0h2.33a1.34,1.34,0,0,1,1.26,1,2,2,0,0,1,.06.48V16.6a1.2,1.2,0,0,1,0,.31,1.32,1.32,0,0,1-1.15,1.17h-6c-.14,0-.19,0-.2.05a1.69,1.69,0,0,0,.46,1h2a.44.44,0,0,1,.44.43A.44.44,0,0,1,13,20H4.82a.44.44,0,0,1-.43-.44.43.43,0,0,1,.43-.43H7a1.61,1.61,0,0,0,.45-.93c0-.1,0-.11-.15-.11H1.41a1.37,1.37,0,0,1-.93-.32A1.17,1.17,0,0,1,0,17H0a4.79,4.79,0,0,1,0-.64c0-.09,0-.19,0-.28V13.23c0-.08,0-.15,0-.23s0-.05,0-.08V6.31A.75.75,0,0,1,.05,6a1.27,1.27,0,0,1,1.16-1c.65,0,1.31,0,2,0h1c.06,0,0-.12,0-.18a.37.37,0,0,0,0-.11h0a5,5,0,0,1,.12-1,4.89,4.89,0,0,1,.21-.72c.05-.11.1-.22.16-.33A2.61,2.61,0,0,1,5.24,1.87Z"/><path d="M12.43,7.05l0,0S12.43,7,12.43,7.05Z"/><g id="Page-1"><g id="Order-as-Shopper---Chat"><g id="Group-12"><path id="bitoff" class="cls-1" d="M7.34,9.31v4.51a.27.27,0,0,0,.27.27h2.92V11.18a.27.27,0,0,0-.27-.27H8.93V9.31h1.6a1.55,1.55,0,0,1,1.12.47,1.54,1.54,0,0,1,.47,1.13v4.78H7.34a1.6,1.6,0,0,1-1.59-1.6V9.31Z"/></g></g></g><path d="M22,9.62C22,7.35,23.29,6,25.33,6s3.32,1.38,3.32,3.65v1.1c0,2.26-1.29,3.57-3.33,3.57S22,13,22,10.72Zm1.34,1.1c0,1.65.85,2.44,2,2.44s2-.79,2-2.44V9.61c0-1.65-.84-2.5-2-2.5s-2,.85-2,2.5Z"/><path d="M30.5,6.43h1.28V7.94H33V9h-1.2v3.31c0,.67.25.86.94.86H33v1a4.1,4.1,0,0,1-.62,0c-1.5,0-1.92-.54-1.92-1.78V9h-.85v-1h.87Z"/><path d="M34.43,5.71h1.3V8.8h.05a1.92,1.92,0,0,1,1.78-1,2.08,2.08,0,0,1,2.18,2.31v4h-1.3V10.42A1.27,1.27,0,0,0,37.1,9a1.33,1.33,0,0,0-1.37,1.47v3.69h-1.3Z"/><path d="M41.05,11.31v-.63a2.66,2.66,0,1,1,5.31.06v.59h-4v.15c0,1,.57,1.73,1.45,1.73a1.22,1.22,0,0,0,1.27-.86h1.24a2.35,2.35,0,0,1-2.53,1.89A2.62,2.62,0,0,1,41.05,11.31Zm4-.89h0a1.39,1.39,0,1,0-2.76,0h2.76Z"/><path d="M47.74,7.94H49v.81h.05a1.55,1.55,0,0,1,1.48-.9,1.89,1.89,0,0,1,.44,0V9a2.69,2.69,0,0,0-.55,0c-1.05,0-1.4.64-1.4,1.47v3.67H47.74Z"/><path d="M55.25,11.91c.06.69.67,1.28,1.8,1.28S58.7,12.71,58.7,12c0-.61-.41-.94-1.27-1.14l-1.31-.33a2.19,2.19,0,0,1-2-2.16C54.16,6.8,55.5,6,57.05,6s2.85.84,2.88,2.33H58.65c-.06-.68-.58-1.24-1.61-1.24s-1.54.43-1.54,1.17c0,.53.36.9,1.11,1.07l1.3.32c1.21.3,2.12.86,2.12,2.22,0,1.57-1.27,2.46-3.08,2.46-2.23,0-3-1.3-3-2.38Z"/><path d="M61.92,6.43H63.2V7.94h1.21V9H63.2v3.31c0,.67.25.86,1,.86h.29v1a4,4,0,0,1-.61,0c-1.51,0-1.93-.54-1.93-1.78V9h-.85v-1h.87Z"/><path d="M71,10.77v.5a2.76,2.76,0,1,1-5.51,0v-.5a2.76,2.76,0,1,1,5.51,0Zm-4.2,0v.48c0,1.1.48,1.92,1.45,1.92s1.44-.81,1.44-1.92v-.48c0-1.13-.47-1.91-1.44-1.91S66.79,9.67,66.79,10.79Z"/><path d="M72.39,7.94h1.3v.81h0a1.55,1.55,0,0,1,1.48-.9,1.89,1.89,0,0,1,.44,0V9a2.69,2.69,0,0,0-.55,0c-1,0-1.4.64-1.4,1.47v3.67H72.39Z"/><path d="M76.42,11.31v-.63a2.66,2.66,0,1,1,5.31.06v.59h-4v.15c0,1,.56,1.73,1.44,1.73a1.23,1.23,0,0,0,1.28-.86h1.23a2.34,2.34,0,0,1-2.52,1.89A2.62,2.62,0,0,1,76.42,11.31Zm4-.89h0a1.39,1.39,0,1,0-2.75,0h2.75Z"/><polygon class="cls-2" points="13.61 6.83 12.56 6.83 12.56 3.8 13.61 4.1 13.61 6.83"/><rect y="6.24" width="1.02" height="7.51"/></g></g></svg>